# xmcd
#
# Track frame offsets: 
#        150
#        23700
#        45979
#        53931
#
# Disc length: 1012 seconds
#
# Revision: 0
# Processed by: cddbd v1.5.2PL0 Copyright (c) Steve Scherf et al.
# Submitted via: ExactAudioCopy v0.99pb4
#
DISCID=2703f204
DTITLE=Acral Necrosis - Eternal Nuklear Violation
DYEAR=2007
DGENRE=Black/Thrash Metal
TTITLE0=Eternal Nuklear Violation
TTITLE1=Unsanctified By Blastthrashing Maelstrom
TTITLE2=The Beast
TTITLE3=Servants To A Blackened Sun
EXTD=
EXTT0=
EXTT1=
EXTT2=
EXTT3=
PLAYORDER=
